<?xml version="1.0" encoding="utf-8"?>
<!-- Generator: Adobe Illustrator 16.0.0, SVG Export Plug-In . SVG Version: 6.00 Build 0)  -->
<!DOCTYPE svg PUBLIC "-//W3C//DTD SVG 1.1//EN" "http://www.w3.org/Graphics/SVG/1.1/DTD/svg11.dtd">
<svg version="1.1" id="Layer_1" xmlns="http://www.w3.org/2000/svg" xmlns:xlink="http://www.w3.org/1999/xlink" x="0px" y="0px"
	 width="380px" height="100px" viewBox="0 0 380 100" enable-background="new 0 0 380 100" xml:space="preserve">
<g>
	<path fill="#2D3277" d="M139.873,45.455c0-25.014-31.079-45.404-69.418-45.404C32.118,0.051,1.04,20.441,1.04,45.455
		c0,0.646-0.008,2.432-0.008,2.658c0,26.536,27.164,48.028,69.414,48.028c42.512,0,69.427-21.486,69.427-48.023
		C139.873,47.19,139.873,46.657,139.873,45.455z"/>
	<ellipse fill="#009EE3" cx="70.468" cy="45.433" rx="66.746" ry="42.699"/>
	<path fill="#FFFFFF" d="M48.305,31.961c-0.035,0.067-0.701,0.756-0.27,1.31c1.054,1.346,4.307,2.117,7.597,1.38
		c1.959-0.44,4.47-2.438,6.902-4.367c2.636-2.095,5.251-4.191,7.88-5.025c2.783-0.886,4.566-0.506,5.745-0.149
		c1.293,0.386,2.813,1.236,5.237,3.056c4.567,3.434,22.932,19.463,26.104,22.234c2.556-1.154,13.913-6.044,29.347-9.445
		c-1.341-8.229-6.346-15.756-13.937-21.92c-10.579,4.443-23.509,6.762-36.151,0.587c-0.064-0.026-6.907-3.265-13.656-3.105
		c-10.031,0.232-14.377,4.574-18.976,9.17L48.305,31.961z"/>
	<path fill="#FFFFFF" d="M106.755,52.142c-0.215-0.191-21.593-18.897-26.437-22.538c-2.803-2.102-4.361-2.638-5.998-2.847
		c-0.853-0.11-2.029,0.048-2.853,0.273c-2.253,0.613-5.198,2.583-7.814,4.656c-2.708,2.157-5.262,4.188-7.63,4.719
		c-3.027,0.679-6.724-0.122-8.41-1.263c-0.684-0.459-1.164-0.99-1.396-1.53c-0.623-1.444,0.526-2.6,0.715-2.793l5.899-6.381
		c0.686-0.685,1.377-1.369,2.083-2.044c-1.903,0.248-3.663,0.734-5.376,1.211c-2.138,0.602-4.193,1.173-6.273,1.172
		c-0.868,0-5.521-0.763-6.403-1.003c-5.339-1.461-10.024-2.884-17.023-6.151c-8.387,6.243-13.995,14.05-15.615,22.648
		c1.205,0.318,3.146,0.896,3.962,1.077c18.979,4.22,24.891,8.567,25.963,9.475c1.161-1.292,2.835-2.109,4.705-2.109
		c2.101,0.003,3.992,1.058,5.143,2.688c1.087-0.858,2.586-1.592,4.523-1.591c0.88,0,1.793,0.163,2.715,0.477
		c2.142,0.734,3.246,2.16,3.819,3.45c0.719-0.324,1.602-0.563,2.642-0.561c1.021,0,2.085,0.233,3.156,0.696
		c3.499,1.502,4.044,4.938,3.727,7.53c0.249-0.029,0.5-0.041,0.755-0.041c4.148,0.003,7.523,3.375,7.521,7.526
		c0,1.284-0.328,2.492-0.899,3.553c1.129,0.635,4.007,2.07,6.533,1.75c2.019-0.254,2.785-0.944,3.06-1.332
		c0.188-0.268,0.387-0.579,0.202-0.803l-5.355-5.949c0,0-0.882-0.834-0.591-1.155c0.303-0.33,0.847,0.144,1.232,0.466
		c2.726,2.276,6.054,5.711,6.054,5.711c0.056,0.037,0.276,0.473,1.507,0.693c1.06,0.189,2.934,0.079,4.232-0.987
		c0.328-0.27,0.655-0.605,0.929-0.952c-0.021,0.017-0.039,0.04-0.06,0.048c1.369-1.752-0.151-3.525-0.151-3.525l-6.252-7.021
		c0,0-0.895-0.826-0.591-1.159c0.272-0.288,0.848,0.147,1.239,0.473c1.979,1.655,4.776,4.462,7.457,7.088
		c0.523,0.383,2.88,1.841,5.999-0.209c1.893-1.241,2.273-2.767,2.22-3.918c-0.132-1.523-1.32-2.608-1.32-2.608l-8.541-8.586
		c0,0-0.901-0.771-0.583-1.16c0.261-0.328,0.847,0.145,1.23,0.466c2.722,2.276,10.086,9.028,10.086,9.028
		c0.104,0.074,2.649,1.886,5.794-0.116c1.124-0.719,1.843-1.803,1.904-3.061C108.297,53.438,106.755,52.142,106.755,52.142z"/>
	<path fill="#FFFFFF" d="M65.333,63.026c-1.324-0.016-2.772,0.771-2.962,0.656c-0.104-0.069,0.081-0.602,0.205-0.908
		c0.127-0.305,1.871-5.552-2.38-7.374c-3.253-1.398-5.241,0.175-5.925,0.885c-0.18,0.186-0.26,0.171-0.28-0.066
		c-0.065-0.944-0.488-3.501-3.296-4.357c-4.013-1.229-6.593,1.572-7.247,2.583c-0.293-2.287-2.227-4.063-4.595-4.064
		c-2.573-0.003-4.66,2.082-4.663,4.654c-0.001,2.572,2.085,4.658,4.657,4.658c1.251,0.003,2.385-0.497,3.221-1.3
		c0.026,0.024,0.037,0.068,0.023,0.157c-0.195,1.151-0.557,5.338,3.827,7.042c1.758,0.683,3.253,0.175,4.492-0.694
		c0.369-0.261,0.43-0.15,0.377,0.196c-0.158,1.076,0.042,3.382,3.273,4.692c2.459,0.999,3.914-0.023,4.867-0.904
		c0.415-0.379,0.528-0.317,0.55,0.268c0.117,3.115,2.705,5.589,5.848,5.592c3.238,0.003,5.862-2.615,5.863-5.852
		C71.192,65.651,68.57,63.062,65.333,63.026z"/>
	<path fill="#2D3277" d="M107.583,49.902c-6.585-5.747-21.805-18.979-25.927-22.072c-2.354-1.771-3.961-2.707-5.371-3.127
		c-0.633-0.191-1.51-0.409-2.639-0.41c-1.048,0-2.174,0.189-3.35,0.563c-2.664,0.843-5.317,2.952-7.885,4.992l-0.132,0.104
		c-2.392,1.9-4.862,3.867-6.732,4.285c-0.816,0.184-1.656,0.278-2.493,0.278c-2.095-0.003-3.977-0.607-4.682-1.507
		c-0.116-0.148-0.042-0.39,0.23-0.736l0.036-0.046l5.793-6.243c4.537-4.537,8.823-8.821,18.688-9.048
		c0.162-0.005,0.329-0.008,0.492-0.008c6.141,0.004,12.279,2.753,12.968,3.071c5.758,2.809,11.7,4.235,17.675,4.24
		c6.227,0.002,12.65-1.539,19.404-4.649c-0.754-0.635-1.539-1.252-2.347-1.857c-5.934,2.572-11.587,3.872-17.041,3.87
		c-5.57-0.005-11.137-1.343-16.54-3.979c-0.285-0.136-7.063-3.332-14.116-3.335c-0.185,0-0.372,0.003-0.557,0.006
		c-8.286,0.194-12.954,3.137-16.093,5.715c-3.053,0.074-5.687,0.811-8.03,1.465c-2.091,0.581-3.896,1.085-5.658,1.084
		c-0.726,0-2.031-0.066-2.148-0.07c-2.025-0.062-12.229-2.564-20.347-5.638c-0.829,0.587-1.626,1.192-2.402,1.81
		c8.479,3.477,18.799,6.166,22.056,6.376c0.906,0.06,1.872,0.162,2.838,0.164c2.154,0,4.305-0.604,6.386-1.187
		c1.229-0.346,2.585-0.721,4.012-0.994c-0.381,0.374-0.761,0.753-1.142,1.135l-5.887,6.367c-0.463,0.468-1.469,1.716-0.806,3.253
		c0.264,0.62,0.799,1.213,1.548,1.718c1.402,0.944,3.914,1.583,6.247,1.585c0.884,0.001,1.722-0.088,2.492-0.261
		c2.467-0.554,5.055-2.615,7.797-4.795c2.185-1.735,5.288-3.939,7.664-4.587c0.664-0.181,1.479-0.293,2.135-0.293
		c0.196,0.002,0.381,0.008,0.553,0.032c1.57,0.199,3.088,0.733,5.798,2.768c4.831,3.629,26.212,22.333,26.421,22.518
		c0.015,0.012,1.378,1.188,1.283,3.143c-0.051,1.09-0.656,2.059-1.708,2.729c-0.912,0.579-1.854,0.874-2.807,0.874
		c-1.429-0.003-2.413-0.672-2.477-0.718c-0.079-0.064-7.404-6.781-10.099-9.037c-0.43-0.355-0.847-0.676-1.269-0.676
		c-0.226-0.002-0.425,0.095-0.56,0.264c-0.425,0.522,0.051,1.246,0.61,1.723l8.557,8.601c0.012,0.009,1.066,0.998,1.182,2.317
		c0.067,1.426-0.614,2.618-2.031,3.547c-1.01,0.665-2.032,1.003-3.033,1.003c-1.313,0-2.236-0.599-2.44-0.74l-1.228-1.21
		c-2.243-2.207-4.56-4.489-6.255-5.904c-0.413-0.344-0.855-0.661-1.275-0.661c-0.208,0-0.396,0.077-0.539,0.229
		c-0.193,0.215-0.328,0.602,0.153,1.242c0.199,0.264,0.433,0.481,0.433,0.481l6.244,7.014c0.052,0.063,1.287,1.53,0.141,2.992
		l-0.221,0.28c-0.187,0.206-0.389,0.396-0.58,0.56c-1.065,0.874-2.488,0.968-3.052,0.968c-0.301,0-0.592-0.026-0.844-0.072
		c-0.616-0.11-1.03-0.282-1.23-0.519l-0.075-0.079c-0.342-0.353-3.489-3.565-6.094-5.739c-0.343-0.288-0.771-0.65-1.214-0.65
		c-0.219,0-0.413,0.086-0.563,0.252c-0.516,0.564,0.258,1.408,0.586,1.718l5.326,5.873c-0.006,0.052-0.073,0.173-0.202,0.358
		c-0.19,0.264-0.837,0.91-2.769,1.152c-0.231,0.031-0.471,0.043-0.707,0.043c-1.992,0-4.117-0.967-5.212-1.548
		c0.498-1.053,0.757-2.212,0.757-3.375c0.002-4.384-3.558-7.949-7.94-7.952c-0.094,0-0.193,0.003-0.287,0.006
		c0.144-2.001-0.14-5.791-4.029-7.459c-1.119-0.484-2.236-0.731-3.321-0.731c-0.85,0-1.666,0.146-2.435,0.44
		c-0.806-1.566-2.144-2.707-3.89-3.302c-0.964-0.334-1.924-0.503-2.852-0.503c-1.618,0-3.109,0.477-4.439,1.423
		c-1.274-1.585-3.199-2.523-5.227-2.523c-1.773,0-3.479,0.71-4.744,1.962c-1.657-1.266-8.233-5.443-25.833-9.439
		c-0.853-0.192-2.809-0.754-4.007-1.104c-0.198,0.953-0.351,1.916-0.45,2.888c0,0,3.246,0.777,3.885,0.921
		c17.979,3.993,23.92,8.146,24.924,8.931c-0.34,0.816-0.517,1.698-0.519,2.586c-0.002,3.714,3.019,6.739,6.736,6.742
		c0.416,0,0.829-0.036,1.235-0.111c0.56,2.733,2.349,4.806,5.082,5.869c0.799,0.307,1.607,0.465,2.4,0.465
		c0.514,0.001,1.029-0.063,1.534-0.192c0.504,1.282,1.641,2.881,4.18,3.912c0.891,0.358,1.781,0.546,2.646,0.546
		c0.707,0,1.398-0.124,2.058-0.366c1.217,2.964,4.113,4.928,7.342,4.928c2.14,0.003,4.194-0.869,5.692-2.411
		c1.283,0.713,3.99,2.003,6.726,2.007c0.354,0,0.687-0.025,1.019-0.064c2.717-0.344,3.981-1.406,4.563-2.232
		c0.104-0.144,0.199-0.297,0.279-0.456c0.642,0.185,1.347,0.335,2.154,0.337c1.484,0,2.908-0.506,4.348-1.555
		c1.414-1.02,2.419-2.483,2.563-3.729c0.003-0.017,0.006-0.035,0.008-0.054c0.477,0.099,0.966,0.149,1.454,0.149
		c1.527,0,3.03-0.477,4.466-1.417c2.77-1.816,3.251-4.188,3.205-5.74c0.484,0.102,0.979,0.153,1.472,0.153
		c1.435,0,2.842-0.432,4.185-1.287c1.717-1.097,2.75-2.777,2.906-4.732c0.107-1.329-0.222-2.67-0.923-3.822
		c4.641-1.999,15.246-5.868,27.734-8.683c-0.075-0.969-0.215-1.925-0.388-2.877C121.682,43.766,110.407,48.646,107.583,49.902z
		 M65.333,74.324c-2.935-0.003-5.32-2.283-5.428-5.189c-0.008-0.249-0.033-0.911-0.594-0.911c-0.23,0-0.431,0.139-0.661,0.347
		c-0.645,0.598-1.467,1.206-2.667,1.206c-0.544,0-1.135-0.127-1.758-0.382c-3.099-1.255-3.142-3.384-3.016-4.239
		c0.034-0.229,0.046-0.466-0.111-0.65l-0.19-0.171h-0.193c-0.157,0-0.319,0.064-0.539,0.219c-0.896,0.63-1.756,0.936-2.63,0.936
		c-0.481,0-0.975-0.097-1.469-0.287c-4.08-1.588-3.758-5.438-3.559-6.598c0.029-0.234-0.028-0.417-0.178-0.538l-0.288-0.237
		l-0.27,0.258c-0.796,0.767-1.835,1.187-2.929,1.187c-2.337-0.003-4.238-1.901-4.236-4.238c0.002-2.338,1.905-4.235,4.242-4.232
		c2.111,0,3.909,1.588,4.179,3.697l0.146,1.138l0.625-0.963c0.07-0.112,1.782-2.701,4.93-2.698c0.599,0,1.217,0.097,1.839,0.289
		c2.51,0.766,2.935,3.041,3,3.988c0.045,0.553,0.438,0.579,0.515,0.579c0.217,0,0.376-0.138,0.489-0.256
		c0.474-0.494,1.505-1.316,3.119-1.316c0.738,0.003,1.524,0.178,2.336,0.526c3.987,1.711,2.179,6.778,2.157,6.831
		c-0.343,0.84-0.356,1.211-0.034,1.425l0.157,0.075h0.116c0.18,0,0.403-0.078,0.772-0.203c0.543-0.188,1.362-0.47,2.128-0.468h0.002
		c3.002,0.032,5.443,2.476,5.442,5.443C70.775,71.888,68.333,74.324,65.333,74.324z"/>
	<path fill="#2D3277" d="M376.412,16.525c-2.506-3.141-6.309-4.709-11.414-4.709c-5.098,0-8.902,1.568-11.406,4.709
		c-2.508,3.138-3.762,6.847-3.762,11.126c0,4.355,1.254,8.078,3.762,11.177c2.504,3.088,6.309,4.638,11.406,4.638
		c5.105,0,8.908-1.55,11.414-4.638c2.508-3.099,3.758-6.821,3.758-11.177C380.17,23.372,378.92,19.663,376.412,16.525z
		 M370.203,34.534c-1.217,1.614-2.955,2.421-5.229,2.421c-2.27,0-4.018-0.807-5.242-2.421c-1.227-1.612-1.838-3.908-1.838-6.883
		c0-2.971,0.611-5.261,1.838-6.865c1.225-1.604,2.973-2.407,5.242-2.407c2.273,0,4.012,0.803,5.229,2.407
		c1.215,1.604,1.824,3.895,1.824,6.865C372.027,30.626,371.418,32.922,370.203,34.534z"/>
	<path fill="#2D3277" d="M312.377,13.9c-2.541-1.289-5.449-1.939-8.723-1.939c-5.029,0-8.58,1.314-10.646,3.934
		c-1.301,1.679-2.029,3.817-2.199,6.422h7.516c0.186-1.149,0.555-2.06,1.109-2.732c0.775-0.91,2.092-1.365,3.955-1.365
		c1.666,0,2.924,0.229,3.785,0.698c0.855,0.463,1.287,1.307,1.287,2.524c0,1.004-0.557,1.738-1.68,2.215
		c-0.625,0.273-1.66,0.501-3.113,0.683l-2.664,0.328c-3.027,0.381-5.324,1.021-6.881,1.915c-2.846,1.64-4.268,4.287-4.268,7.949
		c0,2.82,0.881,5.004,2.652,6.543c1.764,1.539,4.01,2.185,6.721,2.311c16.996,0.759,16.805-8.957,16.961-10.978V21.224
		C316.189,17.638,314.916,15.194,312.377,13.9z M308.43,30.869c-0.053,2.604-0.799,4.398-2.232,5.382
		c-1.434,0.984-3,1.478-4.697,1.478c-1.076,0-1.986-0.299-2.736-0.89c-0.748-0.592-1.121-1.554-1.121-2.884
		c0-1.492,0.611-2.593,1.836-3.305c0.73-0.417,1.92-0.776,3.582-1.062l1.775-0.329c0.883-0.168,1.578-0.347,2.086-0.539
		c0.514-0.187,1.01-0.434,1.508-0.747V30.869z"/>
	<path fill="#2D3277" d="M273.621,18.623c1.943,0,3.369,0.6,4.291,1.799c0.633,0.888,1.027,1.889,1.182,2.998h8.383
		c-0.459-4.229-1.939-7.183-4.438-8.855c-2.508-1.666-5.719-2.506-9.645-2.506c-4.617,0-8.244,1.42-10.863,4.25
		c-2.627,2.835-3.939,6.797-3.939,11.89c0,4.51,1.188,8.186,3.563,11.019c2.377,2.831,6.084,4.249,11.119,4.249
		c5.043,0,8.85-1.698,11.414-5.095c1.609-2.104,2.512-4.339,2.701-6.701h-8.355c-0.17,1.562-0.658,2.835-1.467,3.815
		c-0.807,0.977-2.164,1.47-4.086,1.47c-2.707,0-4.549-1.233-5.527-3.707c-0.535-1.319-0.807-3.066-0.807-5.24
		c0-2.28,0.271-4.108,0.807-5.49C268.971,19.924,270.861,18.623,273.621,18.623z"/>
	<path fill="#2D3277" d="M256.344,12.059c-17.221,0-16.203,15.249-16.203,15.249v15.489h7.816V28.269
		c0-2.38,0.301-4.143,0.896-5.289c1.072-2.031,3.166-3.051,6.293-3.051c0.234,0,0.545,0.013,0.926,0.03
		c0.381,0.019,0.813,0.053,1.311,0.11v-7.952c-0.348-0.023-0.572-0.033-0.67-0.043C256.613,12.066,256.49,12.059,256.344,12.059z"/>
	<path fill="#2D3277" d="M227.637,34.704c-0.328,0.468-0.682,0.869-1.07,1.182c-1.104,0.909-2.604,1.186-4.369,1.186
		c-1.67,0-2.977-0.253-4.16-0.999c-1.949-1.198-3.047-3.227-3.164-6.204h21.625c0.029-2.563-0.053-4.525-0.26-5.892
		c-0.359-2.325-1.15-4.375-2.363-6.139c-1.35-2-3.064-3.464-5.133-4.395c-2.068-0.922-4.395-1.387-6.977-1.387
		c-4.355,0-7.891,1.373-10.617,4.114c-2.727,2.748-4.096,6.688-4.096,11.83c0,5.49,1.512,9.452,4.535,11.887
		c3.018,2.435,6.508,3.654,10.457,3.654c4.785,0,8.51-1.443,11.168-4.332c1.434-1.52,2.332-3.023,2.711-4.506H227.637z
		 M217.131,20.152c1.1-1.129,2.643-1.695,4.635-1.695c1.832,0,3.365,0.531,4.605,1.601c1.234,1.065,1.926,2.632,2.064,4.688h-13.371
		C215.344,22.813,216.035,21.284,217.131,20.152z"/>
	<path fill="#2D3277" d="M203.916,42.794h-7.139V24.818c0-1.643-0.543-5.549-5.252-5.549c-3.139,0-5.41,2.265-5.41,5.549v17.976
		h-7.146V24.818c0-1.643-0.487-5.549-5.193-5.549c-3.194,0-5.414,2.265-5.414,5.549v17.976h-7.144V24.989
		c0-7.422,4.924-13.034,12.558-13.034c3.789,0,6.871,1.592,8.876,4.141c2.108-2.549,5.247-4.141,8.874-4.141
		c7.793,0,12.391,5.385,12.391,13.034V42.794z"/>
	<path fill="#2D3277" d="M347.506,2.672c0,0-7.873-0.841-7.873,5.482l-0.006,8.372c-0.871-1.398-2.004-2.493-3.402-3.28
		c-1.395-0.789-2.992-1.188-4.795-1.188c-3.904,0-7.016,1.455-9.352,4.358c-2.336,2.907-3.498,7.096-3.498,12.16
		c0,4.395,1.184,7.998,3.553,10.804c2.369,2.802,7.016,4.032,11.143,4.032c14.391,0,14.225-12.341,14.225-12.341L347.506,2.672z
		 M338.131,34.599c-1.141,1.636-2.816,2.452-5.01,2.452c-2.201,0-3.838-0.824-4.916-2.466c-1.078-1.646-1.617-4.04-1.617-6.78
		c0-2.543,0.527-4.672,1.59-6.388c1.061-1.714,2.725-2.575,4.996-2.575c1.49,0,2.795,0.473,3.924,1.416
		c1.834,1.563,2.75,4.365,2.75,7.994C339.848,30.849,339.275,32.964,338.131,34.599z"/>
	<path fill="#009EE3" d="M218.287,92.397c0,1.058-0.385,1.966-1.154,2.72c-0.762,0.757-1.682,1.135-2.756,1.135h-3.902V69.095
		c0-5.281,1.779-8.589,4.709-10.824c1.936-1.478,4.82-2.888,10.225-2.888c3.648,0,7.922,1.416,10.23,4.23
		c2.59,3.165,3.67,6.691,3.67,11.298c0,4.765-1.148,8.608-3.445,11.563c-2.297,2.875-5.248,4.307-8.848,4.307
		c-1.914,0-3.598-0.341-5.053-1.017c-1.537-0.758-2.756-1.928-3.676-3.517V92.397z M231.385,71.251c0-2.947-0.574-5.212-1.727-6.802
		c-1.148-1.581-2.795-2.382-4.939-2.382c-2.066,0-3.676,0.801-4.83,2.382c-1.068,1.438-1.602,3.711-1.602,6.802
		c0,2.881,0.572,5.025,1.723,6.463c1.146,1.59,2.795,2.382,4.939,2.382c1.988,0,3.561-0.792,4.709-2.382
		C230.811,76.127,231.385,73.979,231.385,71.251"/>
	<path fill="#009EE3" d="M291.092,84.277v-1.919c-1.354,2.118-3.182,3.431-5.475,3.964c-2.297,0.524-4.57,0.337-6.822-0.571
		c-2.26-0.902-4.199-2.584-5.818-5.035c-1.613-2.462-2.422-5.689-2.422-9.692c0-4.676,1.072-8.475,3.213-11.381
		c2.146-2.905,5.59-4.231,10.328-4.361c4.67-0.123,7.385,0.934,10.043,2.946c2.906,2.206,4.625,5.591,4.625,10.872v15.978
		c0.012,5.084-3.533,14.506-14.668,13.707c-6.898-0.5-10.727-3.33-12.863-9.742h8.236c0.602,1.054,1.521,1.866,2.77,2.428
		c1.234,0.574,2.482,0.721,3.715,0.456c1.24-0.264,2.371-1.003,3.393-2.206C290.355,88.511,290.938,86.696,291.092,84.277
		 M278.227,71.255c0,5.209,1.506,8.096,4.516,8.667c3.004,0.557,5.227-0.141,6.656-2.101c0.678-0.825,1.164-2.133,1.465-3.903
		c0.299-1.773,0.322-3.53,0.059-5.266c-0.26-1.741-0.885-3.289-1.863-4.648c-0.975-1.356-2.406-2.039-4.287-2.039
		c-2.559,0-4.285,0.948-5.189,2.828C278.674,66.685,278.227,68.836,278.227,71.255"/>
	<path fill="#009EE3" d="M263.871,57.437c-2.543-1.285-5.451-1.937-8.721-1.937c-5.035,0-8.582,1.313-10.65,3.932
		c-1.297,1.677-2.029,3.816-2.197,6.423h7.52c0.184-1.15,0.551-2.061,1.107-2.732c0.775-0.91,2.094-1.366,3.953-1.366
		c1.67,0,2.926,0.229,3.785,0.697c0.855,0.465,1.287,1.307,1.287,2.527c0,1.002-0.559,1.739-1.68,2.214
		c-0.623,0.272-1.658,0.5-3.113,0.683l-2.664,0.325c-3.025,0.383-5.324,1.024-6.877,1.916c-2.85,1.639-4.27,4.287-4.27,7.947
		c0,2.821,0.879,5.005,2.652,6.543c1.762,1.538,4.008,2.187,6.719,2.312c16.992,0.76,16.803-8.958,16.957-10.978V64.759
		C267.68,61.172,266.412,58.733,263.871,57.437 M259.92,74.405c-0.049,2.607-0.797,4.397-2.229,5.383
		c-1.432,0.982-2.998,1.475-4.697,1.475c-1.076,0-1.986-0.298-2.734-0.888c-0.75-0.591-1.125-1.555-1.125-2.885
		c0-1.49,0.613-2.593,1.84-3.305c0.73-0.417,1.918-0.775,3.58-1.06l1.773-0.33c0.887-0.168,1.582-0.345,2.084-0.538
		c0.516-0.187,1.012-0.435,1.508-0.748V74.405z"/>
	<path fill="#009EE3" d="M328.326,59.9c-2.51-3.143-6.314-4.709-11.418-4.709c-5.094,0-8.9,1.566-11.406,4.709
		c-2.508,3.137-3.76,6.844-3.76,11.126c0,4.354,1.252,8.075,3.76,11.174c2.506,3.086,6.313,4.636,11.406,4.636
		c5.104,0,8.908-1.55,11.418-4.636c2.504-3.099,3.752-6.819,3.752-11.174C332.078,66.744,330.83,63.037,328.326,59.9
		 M322.113,77.904c-1.213,1.615-2.955,2.422-5.225,2.422c-2.271,0-4.021-0.807-5.242-2.422c-1.23-1.61-1.84-3.905-1.84-6.878
		c0-2.972,0.609-5.262,1.84-6.864c1.221-1.607,2.971-2.406,5.242-2.406c2.27,0,4.012,0.799,5.225,2.406
		c1.219,1.603,1.824,3.893,1.824,6.864C323.938,73.999,323.332,76.294,322.113,77.904"/>
</g>
</svg>
