<?xml version="1.0" encoding="utf-8"?>
<!-- Generator: Adobe Illustrator 16.0.0, SVG Export Plug-In . SVG Version: 6.00 Build 0)  -->
<!DOCTYPE svg PUBLIC "-//W3C//DTD SVG 1.1//EN" "http://www.w3.org/Graphics/SVG/1.1/DTD/svg11.dtd">
<svg version="1.1" id="Layer_1" xmlns="http://www.w3.org/2000/svg" xmlns:xlink="http://www.w3.org/1999/xlink" x="0px" y="0px"
	 width="350px" height="37px" viewBox="0 0 350 37" enable-background="new 0 0 350 37" xml:space="preserve">
<g>
	<g>
		<path fill="#DA2C45" d="M6.465,34.42c-2.081-1.414-3.678-3.445-4.792-6.09C0.557,25.684,0,22.514,0,18.82
			c0-3.729,0.541-6.932,1.623-9.609c1.081-2.68,2.628-4.727,4.643-6.139c2.013-1.416,4.401-2.123,7.163-2.123
			c2.829,0,5.25,0.625,7.263,1.873c2.013,1.246,3.585,3.002,4.717,5.266l-2.995,1.746c-1.065-1.963-2.313-3.369-3.744-4.217
			c-1.431-0.85-3.178-1.273-5.241-1.273c-2.962,0-5.283,1.273-6.963,3.818c-1.681,2.547-2.521,6.082-2.521,10.607
			c0,2.963,0.382,5.525,1.148,7.688c0.766,2.164,1.863,3.82,3.295,4.967c1.43,1.148,3.095,1.723,4.992,1.723
			c2.362,0,4.201-0.523,5.516-1.572c1.314-1.049,2.537-2.688,3.669-4.916l3.145,1.896c-1.198,2.596-2.787,4.574-4.767,5.939
			c-1.981,1.363-4.335,2.047-7.064,2.047C11.015,36.541,8.544,35.834,6.465,34.42z"/>
		<path fill="#DA2C45" d="M50.518,35.742l-8.636-15.025h-6.739v15.025h-3.744V1.697H42.78c2.063,0,3.876,0.4,5.441,1.199
			c1.564,0.799,2.762,1.922,3.594,3.369c0.832,1.447,1.248,3.104,1.248,4.967c0,2.264-0.682,4.201-2.046,5.816
			c-1.365,1.613-3.178,2.703-5.441,3.27l8.885,15.424H50.518z M35.143,17.621h7.138c2.197,0,3.885-0.58,5.067-1.746
			c1.181-1.166,1.772-2.711,1.772-4.643c0-1.93-0.591-3.484-1.772-4.668c-1.182-1.18-2.87-1.771-5.067-1.771h-7.138V17.621z"/>
		<path fill="#DA2C45" d="M60.351,35.742V1.697h19.069v3.146H64.095v11.879h11.98v3.045h-11.98v12.881h15.475v3.094H60.351z"/>
		<path fill="#DA2C45" d="M106.624,35.742l-3.494-9.535H89.003l-3.145,9.535h-3.744L94.195,1.697h3.494l12.43,34.045H106.624z
			 M90.151,23.113h11.831L95.892,6.59L90.151,23.113z"/>
		<path fill="#DA2C45" d="M119.204,35.742V4.793h-10.732V1.697h25.158v3.096h-10.732v30.949H119.204z"/>
		<path fill="#DA2C45" d="M141.692,34.27c-2.214-1.514-3.943-3.619-5.191-6.314c-1.247-2.695-1.872-5.758-1.872-9.186
			c0-3.426,0.625-6.496,1.872-9.209c1.248-2.713,2.978-4.826,5.191-6.34c2.213-1.514,4.733-2.271,7.563-2.271
			c2.828,0,5.35,0.758,7.563,2.271c2.213,1.514,3.943,3.627,5.19,6.34c1.249,2.713,1.872,5.799,1.872,9.26
			c0,3.428-0.623,6.482-1.872,9.16c-1.247,2.68-2.978,4.775-5.19,6.289c-2.214,1.514-4.735,2.271-7.563,2.271
			C146.426,36.541,143.905,35.783,141.692,34.27z M154.821,31.273c1.647-1.213,2.937-2.91,3.868-5.09s1.398-4.65,1.398-7.414
			c0-2.762-0.467-5.242-1.398-7.438s-2.221-3.91-3.868-5.141s-3.504-1.848-5.566-1.848c-2.063,0-3.918,0.617-5.565,1.848
			s-2.938,2.945-3.869,5.141s-1.396,4.676-1.396,7.438c0,2.764,0.465,5.234,1.396,7.414s2.222,3.877,3.869,5.09
			c1.647,1.217,3.502,1.822,5.565,1.822C151.317,33.096,153.174,32.49,154.821,31.273z"/>
		<path fill="#DA2C45" d="M189.689,35.742l-8.636-15.025h-6.739v15.025h-3.744V1.697h11.381c2.063,0,3.877,0.4,5.441,1.199
			c1.563,0.799,2.763,1.922,3.595,3.369c0.831,1.447,1.248,3.104,1.248,4.967c0,2.264-0.684,4.201-2.047,5.816
			c-1.365,1.613-3.179,2.703-5.441,3.27l8.885,15.424H189.689z M174.314,17.621h7.139c2.196,0,3.885-0.58,5.066-1.746
			c1.181-1.166,1.771-2.711,1.771-4.643c0-1.93-0.591-3.484-1.771-4.668c-1.182-1.18-2.87-1.771-5.066-1.771h-7.139V17.621z"/>
	</g>
</g>
<g>
	<g>
		<path d="M220.933,35.293V19.98h-13.308v15.313h-7.142V1.176h7.142v12.846h13.308V1.176h7.193v34.117H220.933z"/>
		<path d="M246.622,36.475c-5.274,0-9.325-1.543-12.151-4.625s-4.239-7.518-4.239-13.309c0-2.877,0.36-5.463,1.079-7.758
			c0.72-2.295,1.78-4.238,3.186-5.832c1.404-1.592,3.117-2.809,5.139-3.648c2.021-0.838,4.35-1.258,6.987-1.258
			c2.603,0,4.925,0.42,6.963,1.258c2.037,0.84,3.741,2.064,5.112,3.674c1.37,1.611,2.415,3.572,3.135,5.885
			c0.719,2.311,1.078,4.924,1.078,7.836c0,5.891-1.396,10.326-4.187,13.307C255.931,34.984,251.897,36.475,246.622,36.475z
			 M246.622,30.359c1.268,0,2.466-0.23,3.598-0.693c1.13-0.463,2.113-1.164,2.953-2.107c0.84-0.941,1.499-2.148,1.979-3.621
			c0.479-1.473,0.72-3.219,0.72-5.24c0-4.043-0.788-7.109-2.364-9.197c-1.576-2.09-3.871-3.135-6.885-3.135
			c-3.015,0-5.326,1.045-6.936,3.135c-1.611,2.088-2.416,5.154-2.416,9.197c0,4.041,0.813,6.996,2.44,8.861
			C241.339,29.428,243.643,30.359,246.622,30.359z"/>
		<path d="M285.261,1.176h7.297v22.762c0,4.145-1.217,7.27-3.649,9.377c-2.432,2.105-5.891,3.16-10.378,3.16
			c-4.145,0-7.425-0.994-9.839-2.98c-2.416-1.986-3.623-5.035-3.623-9.146V1.176h7.245V23.68c0,2.125,0.529,3.803,1.593,5.035
			c1.061,1.234,2.569,1.85,4.521,1.85c4.556,0,6.834-2.209,6.834-6.627V1.176z"/>
		<path d="M314.496,11.246c-0.172-1.746-0.805-3.049-1.901-3.906c-1.097-0.855-2.723-1.283-4.881-1.283
			c-2.021,0-3.544,0.342-4.572,1.027s-1.541,1.68-1.541,2.98c0,1.096,0.401,1.969,1.207,2.619c0.805,0.652,2.165,1.217,4.085,1.697
			c1.951,0.479,3.81,0.949,5.574,1.412s3.28,0.984,4.547,1.566c0.753,0.344,1.456,0.738,2.107,1.182
			c0.65,0.447,1.215,0.994,1.695,1.645c0.479,0.652,0.856,1.422,1.13,2.313c0.274,0.891,0.411,1.936,0.411,3.135
			c0,1.885-0.334,3.502-1.002,4.855c-0.667,1.354-1.61,2.475-2.826,3.365c-1.215,0.891-2.654,1.549-4.315,1.979
			c-1.662,0.428-3.485,0.643-5.472,0.643c-2.125,0-4.06-0.232-5.806-0.693c-1.748-0.463-3.256-1.174-4.522-2.133
			c-1.268-0.959-2.261-2.15-2.979-3.572c-0.72-1.42-1.097-3.09-1.131-5.008h6.885c0.068,1.746,0.779,3.125,2.133,4.135
			c1.353,1.012,3.177,1.516,5.473,1.516c2.123,0,3.758-0.418,4.906-1.258c1.146-0.84,1.721-2.029,1.721-3.572
			c0-0.514-0.076-0.977-0.23-1.387s-0.429-0.797-0.822-1.156c-0.395-0.359-0.934-0.686-1.618-0.977
			c-0.686-0.289-1.559-0.555-2.621-0.795c-2.124-0.48-3.914-0.9-5.368-1.26c-1.457-0.359-2.784-0.813-3.983-1.361
			c-1.85-0.822-3.262-1.893-4.238-3.211s-1.464-3.059-1.464-5.215c0-1.543,0.257-2.955,0.77-4.24
			c0.515-1.285,1.294-2.389,2.339-3.314c1.043-0.924,2.346-1.643,3.904-2.158c1.558-0.512,3.383-0.77,5.473-0.77
			c2.158,0,4.076,0.273,5.754,0.822s3.092,1.318,4.24,2.313c1.146,0.994,2.037,2.176,2.671,3.545
			c0.633,1.369,0.985,2.877,1.054,4.521H314.496z"/>
		<path d="M324.105,35.293V1.176h25.073v5.959h-18.138v7.297h16.699v6.012h-16.699v8.785H350v6.064H324.105z"/>
	</g>
</g>
</svg>
