<?xml version="1.0" encoding="utf-8"?>
<!-- Generator: Adobe Illustrator 16.0.0, SVG Export Plug-In . SVG Version: 6.00 Build 0)  -->
<!DOCTYPE svg PUBLIC "-//W3C//DTD SVG 1.1//EN" "http://www.w3.org/Graphics/SVG/1.1/DTD/svg11.dtd">
<svg version="1.1" xmlns="http://www.w3.org/2000/svg" x="0px" y="0px"
     width="400px"
     height="400px" viewBox="0 0 400 400" enable-background="new 0 0 400 400" xml:space="preserve">
<g id="background" display="none">
	<rect x="25" y="56" display="inline" fill="#FFFFFF" width="350" height="216"/>
  <rect fill="#DA2D45" width="400" height="400"/>
</g>
  <g id="original_1_">
	<g id="figure">
		<rect x="25" y="56" width="350" height="216"/>
    <polygon fill="#DA2D45" points="375.011,239.205 374.979,167.033 290.697,82.752 263.405,55.459 46.728,272.137 118.874,272.137
			263.407,127.603 		"/>
	</g>
    <g id="logotype">
		<g>
			<g>
				<path fill="#EFEFEF" d="M31.465,342.42c-2.081-1.414-3.678-3.445-4.792-6.09c-1.115-2.646-1.672-5.816-1.672-9.51
					c0-3.729,0.541-6.932,1.623-9.609c1.081-2.68,2.628-4.727,4.643-6.139c2.013-1.416,4.401-2.123,7.163-2.123
					c2.829,0,5.25,0.625,7.263,1.873c2.013,1.246,3.585,3.002,4.717,5.266l-2.995,1.746c-1.065-1.963-2.313-3.369-3.744-4.217
					c-1.431-0.85-3.178-1.273-5.241-1.273c-2.962,0-5.283,1.273-6.963,3.818c-1.681,2.547-2.521,6.082-2.521,10.607
					c0,2.963,0.382,5.525,1.148,7.688c0.766,2.164,1.863,3.82,3.295,4.967c1.43,1.148,3.095,1.723,4.992,1.723
					c2.362,0,4.201-0.523,5.516-1.572c1.314-1.049,2.537-2.688,3.669-4.916l3.145,1.896c-1.198,2.596-2.787,4.574-4.767,5.939
					c-1.981,1.363-4.335,2.047-7.064,2.047C36.015,344.541,33.544,343.834,31.465,342.42z"/>
        <path fill="#EFEFEF" d="M75.518,343.742l-8.636-15.025h-6.739v15.025h-3.744v-34.045H67.78c2.063,0,3.876,0.4,5.441,1.199
					c1.564,0.799,2.762,1.922,3.594,3.369c0.832,1.447,1.248,3.104,1.248,4.967c0,2.264-0.682,4.201-2.046,5.816
					c-1.365,1.613-3.178,2.703-5.441,3.27l8.885,15.424H75.518z M60.143,325.621h7.138c2.197,0,3.885-0.58,5.067-1.746
					c1.181-1.166,1.772-2.711,1.772-4.643c0-1.93-0.591-3.484-1.772-4.668c-1.182-1.18-2.87-1.771-5.067-1.771h-7.138V325.621z"/>
        <path fill="#EFEFEF"
              d="M85.351,343.742v-34.045h19.069v3.146H89.095v11.879h11.98v3.045h-11.98v12.881h15.475v3.094H85.351z"/>
        <path fill="#EFEFEF" d="M131.624,343.742l-3.494-9.535h-14.127l-3.145,9.535h-3.744l12.081-34.045h3.494l12.43,34.045H131.624z
					 M115.151,331.113h11.831l-6.09-16.523L115.151,331.113z"/>
        <path fill="#EFEFEF" d="M144.204,343.742v-30.949h-10.732v-3.096h25.158v3.096h-10.732v30.949H144.204z"/>
        <path fill="#EFEFEF" d="M166.692,342.27c-2.214-1.514-3.943-3.619-5.191-6.314c-1.247-2.695-1.872-5.758-1.872-9.186
					c0-3.426,0.625-6.496,1.872-9.209c1.248-2.713,2.978-4.826,5.191-6.34c2.213-1.514,4.733-2.271,7.563-2.271
					c2.828,0,5.35,0.758,7.563,2.271c2.213,1.514,3.943,3.627,5.19,6.34c1.249,2.713,1.872,5.799,1.872,9.26
					c0,3.428-0.623,6.482-1.872,9.16c-1.247,2.68-2.978,4.775-5.19,6.289c-2.214,1.514-4.735,2.271-7.563,2.271
					C171.426,344.541,168.905,343.783,166.692,342.27z M179.821,339.273c1.647-1.213,2.937-2.91,3.868-5.09s1.398-4.65,1.398-7.414
					c0-2.762-0.467-5.242-1.398-7.438s-2.221-3.91-3.868-5.141s-3.504-1.848-5.566-1.848c-2.063,0-3.918,0.617-5.565,1.848
					s-2.938,2.945-3.869,5.141s-1.396,4.676-1.396,7.438c0,2.764,0.465,5.234,1.396,7.414s2.222,3.877,3.869,5.09
					c1.647,1.217,3.502,1.822,5.565,1.822C176.317,341.096,178.174,340.49,179.821,339.273z"/>
        <path fill="#EFEFEF" d="M214.689,343.742l-8.636-15.025h-6.739v15.025h-3.744v-34.045h11.381c2.063,0,3.877,0.4,5.441,1.199
					c1.563,0.799,2.763,1.922,3.595,3.369c0.831,1.447,1.248,3.104,1.248,4.967c0,2.264-0.684,4.201-2.047,5.816
					c-1.365,1.613-3.179,2.703-5.441,3.27l8.885,15.424H214.689z M199.314,325.621h7.139c2.196,0,3.885-0.58,5.066-1.746
					c1.181-1.166,1.771-2.711,1.771-4.643c0-1.93-0.591-3.484-1.771-4.668c-1.182-1.18-2.87-1.771-5.066-1.771h-7.139V325.621z"/>
			</g>
		</g>
      <g>
			<g>
				<path
          d="M245.933,343.293V327.98h-13.308v15.313h-7.142v-34.117h7.142v12.846h13.308v-12.846h7.193v34.117H245.933z"/>
        <path d="M271.622,344.475c-5.274,0-9.325-1.543-12.151-4.625s-4.239-7.518-4.239-13.309c0-2.877,0.36-5.463,1.079-7.758
					c0.72-2.295,1.78-4.238,3.186-5.832c1.404-1.592,3.117-2.809,5.139-3.648c2.021-0.838,4.35-1.258,6.987-1.258
					c2.603,0,4.925,0.42,6.963,1.258c2.037,0.84,3.741,2.064,5.112,3.674c1.37,1.611,2.415,3.572,3.135,5.885
					c0.719,2.311,1.078,4.924,1.078,7.836c0,5.891-1.396,10.326-4.187,13.307C280.931,342.984,276.897,344.475,271.622,344.475z
					 M271.622,338.359c1.268,0,2.466-0.23,3.598-0.693c1.13-0.463,2.113-1.164,2.953-2.107c0.84-0.941,1.499-2.148,1.979-3.621
					c0.479-1.473,0.72-3.219,0.72-5.24c0-4.043-0.788-7.109-2.364-9.197c-1.576-2.09-3.871-3.135-6.885-3.135
					c-3.015,0-5.326,1.045-6.936,3.135c-1.611,2.088-2.416,5.154-2.416,9.197c0,4.041,0.813,6.996,2.44,8.861
					C266.339,337.428,268.643,338.359,271.622,338.359z"/>
        <path d="M310.261,309.176h7.297v22.762c0,4.145-1.217,7.27-3.649,9.377c-2.432,2.105-5.891,3.16-10.378,3.16
					c-4.145,0-7.425-0.994-9.839-2.98c-2.416-1.986-3.623-5.035-3.623-9.146v-23.172h7.245v22.504c0,2.125,0.529,3.803,1.593,5.035
					c1.061,1.234,2.569,1.85,4.521,1.85c4.556,0,6.834-2.209,6.834-6.627V309.176z"/>
        <path d="M339.496,319.246c-0.172-1.746-0.805-3.049-1.901-3.906c-1.097-0.855-2.723-1.283-4.881-1.283
					c-2.021,0-3.544,0.342-4.572,1.027s-1.541,1.68-1.541,2.98c0,1.096,0.401,1.969,1.207,2.619
					c0.805,0.652,2.165,1.217,4.085,1.697c1.951,0.479,3.81,0.949,5.574,1.412s3.28,0.984,4.547,1.566
					c0.753,0.344,1.456,0.738,2.107,1.182c0.65,0.447,1.215,0.994,1.695,1.645c0.479,0.652,0.856,1.422,1.13,2.313
					c0.274,0.891,0.411,1.936,0.411,3.135c0,1.885-0.334,3.502-1.002,4.855c-0.667,1.354-1.61,2.475-2.826,3.365
					c-1.215,0.891-2.654,1.549-4.315,1.979c-1.662,0.428-3.485,0.643-5.472,0.643c-2.125,0-4.06-0.232-5.806-0.693
					c-1.748-0.463-3.256-1.174-4.522-2.133c-1.268-0.959-2.261-2.15-2.979-3.572c-0.72-1.42-1.097-3.09-1.131-5.008h6.885
					c0.068,1.746,0.779,3.125,2.133,4.135c1.353,1.012,3.177,1.516,5.473,1.516c2.123,0,3.758-0.418,4.906-1.258
					c1.146-0.84,1.721-2.029,1.721-3.572c0-0.514-0.076-0.977-0.23-1.387s-0.429-0.797-0.822-1.156
					c-0.395-0.359-0.934-0.686-1.618-0.977c-0.686-0.289-1.559-0.555-2.621-0.795c-2.124-0.48-3.914-0.9-5.368-1.26
					c-1.457-0.359-2.784-0.813-3.983-1.361c-1.85-0.822-3.262-1.893-4.238-3.211s-1.464-3.059-1.464-5.215
					c0-1.543,0.257-2.955,0.77-4.24c0.515-1.285,1.294-2.389,2.339-3.314c1.043-0.924,2.346-1.643,3.904-2.158
					c1.558-0.512,3.383-0.77,5.473-0.77c2.158,0,4.076,0.273,5.754,0.822s3.092,1.318,4.24,2.313
					c1.146,0.994,2.037,2.176,2.671,3.545c0.633,1.369,0.985,2.877,1.054,4.521H339.496z"/>
        <path d="M349.105,343.293v-34.117h25.073v5.959h-18.138v7.297h16.699v6.012h-16.699v8.785H375v6.064H349.105z"/>
			</g>
		</g>
	</g>
</g>
  <g id="inverted" display="none">
	<g id="figure_1_" display="inline">
		<rect x="25" y="56" fill="#DA2D45" width="350" height="216"/>
    <polygon
      points="375.006,239.25 374.975,167.078 290.691,82.797 263.4,55.413 46.723,272 118.868,272 263.402,127.557 		"/>
	</g>
    <g id="logotype_1_" display="inline">
		<g>
			<path d="M31.459,342.465c-2.081-1.414-3.678-3.445-4.792-6.09c-1.115-2.646-1.672-5.816-1.672-9.51
				c0-3.729,0.541-6.932,1.623-9.609c1.081-2.68,2.628-4.727,4.643-6.139c2.013-1.416,4.401-2.123,7.163-2.123
				c2.829,0,5.25,0.625,7.263,1.873c2.013,1.246,3.585,3.002,4.717,5.266l-2.995,1.746c-1.065-1.963-2.313-3.369-3.744-4.217
				c-1.431-0.85-3.178-1.273-5.241-1.273c-2.962,0-5.283,1.273-6.963,3.818c-1.681,2.547-2.521,6.082-2.521,10.607
				c0,2.963,0.382,5.525,1.148,7.688c0.766,2.164,1.863,3.82,3.295,4.967c1.43,1.148,3.095,1.723,4.992,1.723
				c2.362,0,4.201-0.523,5.516-1.572c1.314-1.049,2.537-2.688,3.669-4.916l3.145,1.896c-1.198,2.596-2.787,4.574-4.767,5.939
				c-1.981,1.363-4.335,2.047-7.064,2.047C36.01,344.586,33.539,343.879,31.459,342.465z"/>
      <path d="M75.512,343.787l-8.636-15.025h-6.739v15.025h-3.744v-34.045h11.382c2.063,0,3.876,0.4,5.441,1.199
				c1.564,0.799,2.762,1.922,3.594,3.369c0.832,1.447,1.248,3.104,1.248,4.967c0,2.264-0.682,4.201-2.046,5.816
				c-1.365,1.613-3.178,2.703-5.441,3.27l8.885,15.424H75.512z M60.137,325.666h7.138c2.197,0,3.885-0.58,5.067-1.746
				c1.181-1.166,1.772-2.711,1.772-4.643c0-1.93-0.591-3.484-1.772-4.668c-1.182-1.18-2.87-1.771-5.067-1.771h-7.138V325.666z"/>
      <path d="M85.345,343.787v-34.045h19.069v3.146H89.089v11.879h11.98v3.045h-11.98v12.881h15.475v3.094H85.345z"/>
      <path d="M131.619,343.787l-3.494-9.535h-14.127l-3.145,9.535h-3.744l12.081-34.045h3.494l12.43,34.045H131.619z M115.146,331.158
				h11.831l-6.09-16.523L115.146,331.158z"/>
      <path d="M144.199,343.787v-30.949h-10.732v-3.096h25.158v3.096h-10.732v30.949H144.199z"/>
      <path d="M166.687,342.314c-2.214-1.514-3.943-3.619-5.191-6.314c-1.247-2.695-1.872-5.758-1.872-9.186
				c0-3.426,0.625-6.496,1.872-9.209c1.248-2.713,2.978-4.826,5.191-6.34c2.213-1.514,4.733-2.271,7.563-2.271
				c2.828,0,5.35,0.758,7.563,2.271c2.213,1.514,3.943,3.627,5.19,6.34c1.249,2.713,1.872,5.799,1.872,9.26
				c0,3.428-0.623,6.482-1.872,9.16c-1.247,2.68-2.978,4.775-5.19,6.289c-2.214,1.514-4.735,2.271-7.563,2.271
				C171.42,344.586,168.9,343.828,166.687,342.314z M179.816,339.318c1.647-1.213,2.937-2.91,3.868-5.09s1.398-4.65,1.398-7.414
				c0-2.762-0.467-5.242-1.398-7.438s-2.221-3.91-3.868-5.141s-3.504-1.848-5.566-1.848c-2.063,0-3.918,0.617-5.565,1.848
				s-2.938,2.945-3.869,5.141s-1.396,4.676-1.396,7.438c0,2.764,0.465,5.234,1.396,7.414s2.222,3.877,3.869,5.09
				c1.647,1.217,3.502,1.822,5.565,1.822C176.312,341.141,178.168,340.535,179.816,339.318z"/>
      <path d="M214.684,343.787l-8.635-15.025h-6.74v15.025h-3.744v-34.045h11.38c2.064,0,3.877,0.4,5.441,1.199
				s2.764,1.922,3.596,3.369c0.83,1.447,1.248,3.104,1.248,4.967c0,2.264-0.684,4.201-2.047,5.816
				c-1.365,1.613-3.18,2.703-5.441,3.27l8.885,15.424H214.684z M199.309,325.666h7.138c2.197,0,3.885-0.58,5.066-1.746
				s1.771-2.711,1.771-4.643c0-1.93-0.59-3.484-1.771-4.668c-1.182-1.18-2.869-1.771-5.066-1.771h-7.138V325.666z"/>
		</g>
      <g>
			<path fill="#DA2D45" d="M245.928,343.338v-15.313h-13.309v15.313h-7.141v-34.117h7.141v12.846h13.309v-12.846h7.193v34.117
				H245.928z"/>
        <path fill="#DA2D45" d="M271.617,344.52c-5.275,0-9.326-1.543-12.152-4.625s-4.238-7.518-4.238-13.309
				c0-2.877,0.359-5.463,1.078-7.758c0.721-2.295,1.781-4.238,3.186-5.832c1.404-1.592,3.117-2.809,5.139-3.648
				c2.021-0.838,4.35-1.258,6.988-1.258c2.602,0,4.924,0.42,6.963,1.258c2.037,0.84,3.74,2.064,5.111,3.674
				c1.371,1.611,2.416,3.572,3.135,5.885c0.719,2.311,1.078,4.924,1.078,7.836c0,5.891-1.395,10.326-4.186,13.307
				C280.926,343.029,276.893,344.52,271.617,344.52z M271.617,338.404c1.268,0,2.465-0.23,3.598-0.693
				c1.129-0.463,2.113-1.164,2.953-2.107c0.84-0.941,1.498-2.148,1.979-3.621c0.479-1.473,0.719-3.219,0.719-5.24
				c0-4.043-0.787-7.109-2.363-9.197c-1.576-2.09-3.871-3.135-6.885-3.135c-3.016,0-5.326,1.045-6.936,3.135
				c-1.611,2.088-2.416,5.154-2.416,9.197c0,4.041,0.813,6.996,2.439,8.861C266.334,337.473,268.637,338.404,271.617,338.404z"/>
        <path fill="#DA2D45" d="M310.256,309.221h7.297v22.762c0,4.145-1.217,7.27-3.65,9.377c-2.432,2.105-5.891,3.16-10.377,3.16
				c-4.145,0-7.426-0.994-9.84-2.98c-2.416-1.986-3.623-5.035-3.623-9.146v-23.172h7.246v22.504c0,2.125,0.529,3.803,1.592,5.035
				c1.061,1.234,2.57,1.85,4.521,1.85c4.555,0,6.834-2.209,6.834-6.627V309.221z"/>
        <path fill="#DA2D45" d="M339.49,319.291c-0.172-1.746-0.805-3.049-1.9-3.906c-1.098-0.855-2.723-1.283-4.881-1.283
				c-2.021,0-3.545,0.342-4.572,1.027c-1.029,0.686-1.541,1.68-1.541,2.98c0,1.096,0.4,1.969,1.207,2.619
				c0.805,0.652,2.164,1.217,4.084,1.697c1.951,0.479,3.811,0.949,5.574,1.412c1.766,0.463,3.281,0.984,4.547,1.566
				c0.754,0.344,1.457,0.738,2.107,1.182c0.65,0.447,1.215,0.994,1.695,1.645c0.48,0.652,0.857,1.422,1.131,2.313
				s0.41,1.936,0.41,3.135c0,1.885-0.334,3.502-1.002,4.855c-0.666,1.354-1.609,2.475-2.826,3.365
				c-1.215,0.891-2.654,1.549-4.314,1.979c-1.662,0.428-3.486,0.643-5.473,0.643c-2.125,0-4.059-0.232-5.805-0.693
				c-1.748-0.463-3.256-1.174-4.523-2.133s-2.26-2.15-2.979-3.572c-0.721-1.42-1.098-3.09-1.131-5.008h6.885
				c0.068,1.746,0.779,3.125,2.133,4.135c1.352,1.012,3.176,1.516,5.473,1.516c2.123,0,3.758-0.418,4.906-1.258
				c1.146-0.84,1.721-2.029,1.721-3.572c0-0.514-0.076-0.977-0.23-1.387s-0.43-0.797-0.822-1.156
				c-0.395-0.359-0.934-0.686-1.619-0.977c-0.686-0.289-1.559-0.555-2.621-0.795c-2.123-0.48-3.914-0.9-5.367-1.26
				c-1.457-0.359-2.785-0.813-3.984-1.361c-1.85-0.822-3.262-1.893-4.238-3.211s-1.463-3.059-1.463-5.215
				c0-1.543,0.256-2.955,0.77-4.24s1.293-2.389,2.338-3.314c1.043-0.924,2.346-1.643,3.904-2.158c1.559-0.512,3.383-0.77,5.473-0.77
				c2.158,0,4.076,0.273,5.754,0.822s3.092,1.318,4.24,2.313c1.146,0.994,2.037,2.176,2.672,3.545
				c0.633,1.369,0.984,2.877,1.053,4.521H339.49z"/>
        <path fill="#DA2D45"
              d="M349.1,343.338v-34.117h25.074v5.959h-18.139v7.297h16.699v6.012h-16.699v8.785h18.959v6.064H349.1z"/>
		</g>
	</g>
</g>
  <g id="another-version" display="none">
	<g id="figure_copy" display="inline">
		<g>
			<polygon points="303.654,30.359 399.977,126.573 400,180.596 400,0 273.081,0 			"/>
      <polygon points="272.466,81.188 107.44,246 400,246 400,208.937 			"/>
      <polygon points="271.845,0 0,0 0,246 24.988,246 			"/>
		</g>
	</g>
    <g id="logotype_copy">
		<g display="inline">
			<g>
				<path fill="#F4F4F4" d="M104.135,381.037c-1.738-1.182-3.073-2.879-4.004-5.089c-0.932-2.211-1.397-4.86-1.397-7.946
					c0-3.115,0.452-5.792,1.355-8.029c0.903-2.239,2.196-3.949,3.879-5.13c1.683-1.183,3.678-1.773,5.986-1.773
					c2.363,0,4.386,0.522,6.069,1.564c1.682,1.042,2.996,2.509,3.942,4.4l-2.503,1.459c-0.89-1.64-1.933-2.815-3.128-3.523
					c-1.196-0.71-2.656-1.064-4.379-1.064c-2.476,0-4.415,1.064-5.819,3.19c-1.404,2.129-2.106,5.083-2.106,8.864
					c0,2.476,0.319,4.617,0.959,6.424c0.64,1.808,1.557,3.191,2.753,4.149c1.195,0.96,2.586,1.439,4.171,1.439
					c1.974,0,3.51-0.437,4.609-1.313c1.099-0.876,2.12-2.245,3.066-4.107l2.627,1.585c-1.001,2.168-2.329,3.821-3.983,4.963
					c-1.655,1.139-3.623,1.71-5.903,1.71C107.937,382.81,105.872,382.219,104.135,381.037z"/>
        <path fill="#F4F4F4" d="M140.945,382.143l-7.216-12.556h-5.631v12.556h-3.128v-28.448h9.511c1.724,0,3.239,0.334,4.546,1.002
					c1.307,0.667,2.308,1.605,3.003,2.815c0.695,1.209,1.042,2.593,1.042,4.15c0,1.892-0.57,3.51-1.71,4.859
					c-1.141,1.349-2.656,2.259-4.546,2.732l7.424,12.889H140.945z M128.098,367h5.965c1.835,0,3.247-0.484,4.234-1.459
					c0.987-0.975,1.481-2.266,1.481-3.879s-0.494-2.912-1.481-3.901c-0.987-0.985-2.398-1.479-4.234-1.479h-5.965V367z"/>
        <path fill="#F4F4F4"
              d="M149.162,382.143v-28.448h15.934v2.629H152.29v9.926h10.011v2.545H152.29v10.763h12.931v2.586H149.162z"
        />
        <path fill="#F4F4F4" d="M187.828,382.143l-2.919-7.968h-11.805l-2.627,7.968h-3.129l10.095-28.448h2.919l10.387,28.448H187.828z
					 M174.063,371.59h9.886l-5.089-13.808L174.063,371.59z"/>
        <path fill="#F4F4F4" d="M198.34,382.143v-25.861h-8.968v-2.587h21.022v2.587h-8.968v25.861H198.34z"/>
        <path fill="#F4F4F4" d="M217.131,380.911c-1.85-1.265-3.295-3.023-4.338-5.276c-1.042-2.252-1.564-4.811-1.564-7.675
					c0-2.862,0.522-5.429,1.564-7.695c1.043-2.267,2.488-4.032,4.338-5.298c1.849-1.265,3.955-1.897,6.319-1.897
					c2.363,0,4.47,0.633,6.319,1.897c1.85,1.266,3.296,3.031,4.338,5.298c1.043,2.267,1.564,4.846,1.564,7.737
					c0,2.864-0.521,5.417-1.564,7.654c-1.042,2.239-2.488,3.99-4.338,5.255c-1.85,1.266-3.956,1.898-6.319,1.898
					C221.086,382.81,218.979,382.177,217.131,380.911z M228.102,378.408c1.376-1.014,2.453-2.432,3.232-4.253
					c0.778-1.821,1.168-3.886,1.168-6.195c0-2.308-0.39-4.381-1.168-6.215c-0.779-1.835-1.856-3.268-3.232-4.296
					c-1.377-1.028-2.928-1.544-4.651-1.544c-1.725,0-3.274,0.516-4.65,1.544c-1.377,1.028-2.455,2.461-3.233,4.296
					c-0.778,1.834-1.167,3.907-1.167,6.215c0,2.31,0.389,4.374,1.167,6.195s1.856,3.239,3.233,4.253
					c1.376,1.017,2.926,1.522,4.65,1.522C225.174,379.931,226.725,379.425,228.102,378.408z"/>
        <path fill="#F4F4F4" d="M257.237,382.143l-7.216-12.556h-5.632v12.556h-3.129v-28.448h9.511c1.724,0,3.239,0.334,4.546,1.002
					c1.307,0.667,2.309,1.605,3.004,2.815c0.694,1.209,1.043,2.593,1.043,4.15c0,1.892-0.571,3.51-1.71,4.859
					c-1.141,1.349-2.656,2.259-4.547,2.732l7.424,12.889H257.237z M244.39,367h5.965c1.836,0,3.246-0.484,4.233-1.459
					s1.48-2.266,1.48-3.879s-0.493-2.912-1.48-3.901c-0.987-0.985-2.397-1.479-4.233-1.479h-5.965V367z"/>
			</g>
		</g>
      <g display="inline">
			<g>
				<path
          d="M283.344,381.767v-12.795h-11.12v12.795h-5.967v-28.508h5.967v10.733h11.12v-10.733h6.011v28.508H283.344z"/>
        <path d="M304.81,382.754c-4.407,0-7.792-1.289-10.153-3.864s-3.542-6.282-3.542-11.121c0-2.403,0.301-4.564,0.901-6.482
					c0.602-1.917,1.487-3.541,2.662-4.873c1.173-1.33,2.604-2.347,4.294-3.049c1.688-0.7,3.634-1.051,5.838-1.051
					c2.175,0,4.115,0.351,5.818,1.051c1.702,0.702,3.126,1.726,4.272,3.07c1.145,1.347,2.018,2.984,2.619,4.917
					c0.601,1.931,0.9,4.114,0.9,6.548c0,4.922-1.166,8.629-3.498,11.119C312.588,381.509,309.218,382.754,304.81,382.754z
					 M304.81,377.645c1.06,0,2.061-0.193,3.007-0.58c0.943-0.387,1.766-0.973,2.468-1.761c0.701-0.786,1.252-1.795,1.652-3.025
					s0.602-2.689,0.602-4.379c0-3.378-0.658-5.94-1.976-7.686c-1.316-1.746-3.234-2.619-5.753-2.619s-4.45,0.873-5.795,2.619
					c-1.347,1.745-2.019,4.308-2.019,7.686c0,3.377,0.68,5.846,2.039,7.404C300.396,376.865,302.32,377.645,304.81,377.645z"/>
        <path d="M337.097,353.259h6.097v19.02c0,3.463-1.017,6.074-3.049,7.835c-2.032,1.76-4.923,2.641-8.672,2.641
					c-3.464,0-6.204-0.83-8.222-2.49c-2.019-1.66-3.027-4.207-3.027-7.643v-19.362h6.054v18.804c0,1.775,0.442,3.178,1.331,4.207
					c0.887,1.032,2.147,1.546,3.777,1.546c3.807,0,5.711-1.846,5.711-5.537V353.259z"/>
        <path d="M361.525,361.673c-0.144-1.459-0.673-2.547-1.589-3.264c-0.916-0.715-2.275-1.072-4.078-1.072
					c-1.689,0-2.962,0.285-3.821,0.858c-0.858,0.573-1.287,1.403-1.287,2.49c0,0.916,0.335,1.646,1.009,2.188
					c0.672,0.546,1.809,1.017,3.413,1.419c1.631,0.399,3.184,0.793,4.658,1.18s2.74,0.822,3.799,1.309
					c0.629,0.287,1.217,0.617,1.761,0.987c0.544,0.374,1.016,0.831,1.417,1.374c0.4,0.546,0.716,1.188,0.944,1.933
					c0.229,0.744,0.344,1.617,0.344,2.619c0,1.575-0.279,2.927-0.838,4.058c-0.558,1.131-1.346,2.067-2.361,2.812
					c-1.015,0.745-2.218,1.295-3.606,1.653c-1.389,0.357-2.912,0.537-4.571,0.537c-1.776,0-3.393-0.194-4.852-0.579
					c-1.461-0.387-2.721-0.981-3.779-1.782c-1.059-0.802-1.889-1.797-2.489-2.985c-0.602-1.187-0.916-2.581-0.945-4.185h5.753
					c0.058,1.459,0.651,2.611,1.782,3.455c1.131,0.846,2.654,1.267,4.573,1.267c1.774,0,3.14-0.349,4.1-1.051
					c0.958-0.702,1.438-1.695,1.438-2.985c0-0.429-0.063-0.815-0.192-1.158s-0.358-0.666-0.688-0.967
					c-0.329-0.3-0.779-0.572-1.352-0.815c-0.573-0.242-1.303-0.464-2.19-0.664c-1.774-0.401-3.271-0.753-4.485-1.053
					c-1.218-0.301-2.326-0.68-3.329-1.138c-1.545-0.688-2.725-1.582-3.541-2.684s-1.224-2.556-1.224-4.357
					c0-1.289,0.215-2.469,0.644-3.543c0.43-1.074,1.081-1.996,1.954-2.77c0.872-0.771,1.96-1.372,3.263-1.804
					c1.302-0.427,2.826-0.643,4.573-0.643c1.803,0,3.405,0.229,4.808,0.688c1.401,0.458,2.583,1.102,3.543,1.932
					c0.958,0.831,1.702,1.818,2.231,2.962c0.529,1.145,0.824,2.404,0.881,3.778H361.525z"/>
        <path d="M369.555,381.767v-28.508h20.951v4.979h-15.155v6.098h13.953v5.023h-13.953v7.341h15.842v5.067H369.555z"/>
			</g>
		</g>
	</g>
</g>
</svg>
